<mxfile host="app.diagrams.net" agent="Mozilla/5.0 (Windows NT 10.0; Win64; x64; rv:128.0) Gecko/20100101 Firefox/128.0" version="24.7.17">
  <diagram id="prtHgNgQTEPvFCAcTncT" name="Page-1">
    <mxGraphModel dx="1034" dy="422" grid="1" gridSize="10" guides="1" tooltips="1" connect="1" arrows="1" fold="1" page="1" pageScale="1" pageWidth="827" pageHeight="1169" math="0" shadow="0">
      <root>
        <mxCell id="0" />
        <mxCell id="1" parent="0" />
        <mxCell id="pc5rxJWwcsagWdeoUbo9-2" value="" style="ellipse;whiteSpace=wrap;html=1;aspect=fixed;fillColor=#060606;" parent="1" vertex="1">
          <mxGeometry x="180" y="10" width="30" height="30" as="geometry" />
        </mxCell>
        <mxCell id="pc5rxJWwcsagWdeoUbo9-3" style="edgeStyle=orthogonalEdgeStyle;rounded=0;orthogonalLoop=1;jettySize=auto;html=1;" parent="1" source="pc5rxJWwcsagWdeoUbo9-2" edge="1">
          <mxGeometry relative="1" as="geometry">
            <mxPoint x="195" y="90" as="targetPoint" />
          </mxGeometry>
        </mxCell>
        <mxCell id="pc5rxJWwcsagWdeoUbo9-5" value="Choisir le niveau de difficulté" style="rounded=1;whiteSpace=wrap;html=1;" parent="1" vertex="1">
          <mxGeometry x="110" y="90" width="170" height="40" as="geometry" />
        </mxCell>
        <mxCell id="pc5rxJWwcsagWdeoUbo9-8" value="" style="edgeStyle=orthogonalEdgeStyle;rounded=0;orthogonalLoop=1;jettySize=auto;html=1;exitX=0.442;exitY=1.105;exitDx=0;exitDy=0;exitPerimeter=0;" parent="1" source="pc5rxJWwcsagWdeoUbo9-10" target="pc5rxJWwcsagWdeoUbo9-7" edge="1">
          <mxGeometry relative="1" as="geometry">
            <mxPoint x="195" y="130" as="sourcePoint" />
            <mxPoint x="195" y="170" as="targetPoint" />
          </mxGeometry>
        </mxCell>
        <mxCell id="pc5rxJWwcsagWdeoUbo9-7" value="cliquer sur une case" style="rounded=1;whiteSpace=wrap;html=1;" parent="1" vertex="1">
          <mxGeometry x="110" y="260" width="170" height="40" as="geometry" />
        </mxCell>
        <mxCell id="pc5rxJWwcsagWdeoUbo9-9" value="" style="edgeStyle=orthogonalEdgeStyle;rounded=0;orthogonalLoop=1;jettySize=auto;html=1;exitX=0.5;exitY=1;exitDx=0;exitDy=0;" parent="1" source="pc5rxJWwcsagWdeoUbo9-5" edge="1">
          <mxGeometry relative="1" as="geometry">
            <mxPoint x="194.67000000000002" y="129.39999999999998" as="sourcePoint" />
            <mxPoint x="195.32" y="180" as="targetPoint" />
          </mxGeometry>
        </mxCell>
        <mxCell id="pc5rxJWwcsagWdeoUbo9-10" value="Débuter la partie" style="rounded=1;whiteSpace=wrap;html=1;" parent="1" vertex="1">
          <mxGeometry x="120" y="180" width="170" height="40" as="geometry" />
        </mxCell>
        <mxCell id="pc5rxJWwcsagWdeoUbo9-11" value="" style="edgeStyle=orthogonalEdgeStyle;rounded=0;orthogonalLoop=1;jettySize=auto;html=1;exitX=0.442;exitY=1.105;exitDx=0;exitDy=0;exitPerimeter=0;" parent="1" target="pc5rxJWwcsagWdeoUbo9-12" edge="1">
          <mxGeometry relative="1" as="geometry">
            <mxPoint x="194.71" y="300" as="sourcePoint" />
            <mxPoint x="194.71" y="336" as="targetPoint" />
          </mxGeometry>
        </mxCell>
        <mxCell id="pc5rxJWwcsagWdeoUbo9-13" style="edgeStyle=orthogonalEdgeStyle;rounded=0;orthogonalLoop=1;jettySize=auto;html=1;" parent="1" source="pc5rxJWwcsagWdeoUbo9-12" edge="1">
          <mxGeometry relative="1" as="geometry">
            <mxPoint x="250" y="340" as="targetPoint" />
          </mxGeometry>
        </mxCell>
        <mxCell id="pc5rxJWwcsagWdeoUbo9-14" style="edgeStyle=orthogonalEdgeStyle;rounded=0;orthogonalLoop=1;jettySize=auto;html=1;" parent="1" source="pc5rxJWwcsagWdeoUbo9-12" edge="1">
          <mxGeometry relative="1" as="geometry">
            <mxPoint x="195.00499999999988" y="380" as="targetPoint" />
          </mxGeometry>
        </mxCell>
        <mxCell id="pc5rxJWwcsagWdeoUbo9-12" value="" style="html=1;whiteSpace=wrap;aspect=fixed;shape=isoRectangle;" parent="1" vertex="1">
          <mxGeometry x="178.33999999999997" y="330" width="33.33" height="20" as="geometry" />
        </mxCell>
        <mxCell id="pc5rxJWwcsagWdeoUbo9-16" style="edgeStyle=orthogonalEdgeStyle;rounded=0;orthogonalLoop=1;jettySize=auto;html=1;" parent="1" source="pc5rxJWwcsagWdeoUbo9-15" edge="1">
          <mxGeometry relative="1" as="geometry">
            <mxPoint x="360" y="340" as="targetPoint" />
          </mxGeometry>
        </mxCell>
        <mxCell id="pc5rxJWwcsagWdeoUbo9-15" value="[clique droit]" style="text;html=1;align=center;verticalAlign=middle;resizable=0;points=[];autosize=1;strokeColor=none;fillColor=none;" parent="1" vertex="1">
          <mxGeometry x="250" y="325" width="90" height="30" as="geometry" />
        </mxCell>
        <mxCell id="pc5rxJWwcsagWdeoUbo9-17" value="placer un drapeau" style="rounded=1;whiteSpace=wrap;html=1;" parent="1" vertex="1">
          <mxGeometry x="360" y="320" width="170" height="40" as="geometry" />
        </mxCell>
        <mxCell id="pc5rxJWwcsagWdeoUbo9-18" value="[clique gauche]" style="text;html=1;align=center;verticalAlign=middle;resizable=0;points=[];autosize=1;strokeColor=none;fillColor=none;rotation=0;" parent="1" vertex="1">
          <mxGeometry x="155" y="380" width="100" height="30" as="geometry" />
        </mxCell>
        <mxCell id="pc5rxJWwcsagWdeoUbo9-19" style="edgeStyle=orthogonalEdgeStyle;rounded=0;orthogonalLoop=1;jettySize=auto;html=1;" parent="1" edge="1">
          <mxGeometry relative="1" as="geometry">
            <mxPoint x="194.66499999999988" y="440" as="targetPoint" />
            <mxPoint x="194.66" y="410" as="sourcePoint" />
          </mxGeometry>
        </mxCell>
        <mxCell id="pc5rxJWwcsagWdeoUbo9-20" value="perdu" style="rounded=1;whiteSpace=wrap;html=1;" parent="1" vertex="1">
          <mxGeometry x="252.5" y="505" width="85" height="30" as="geometry" />
        </mxCell>
        <mxCell id="pc5rxJWwcsagWdeoUbo9-22" value="" style="shape=partialRectangle;whiteSpace=wrap;html=1;bottom=0;right=0;fillColor=none;rotation=-180;" parent="1" vertex="1">
          <mxGeometry x="530" y="280" width="34" height="60" as="geometry" />
        </mxCell>
        <mxCell id="pc5rxJWwcsagWdeoUbo9-24" value="" style="endArrow=classic;html=1;rounded=0;exitX=0;exitY=1;exitDx=0;exitDy=0;entryX=1;entryY=0.5;entryDx=0;entryDy=0;" parent="1" source="pc5rxJWwcsagWdeoUbo9-22" target="pc5rxJWwcsagWdeoUbo9-7" edge="1">
          <mxGeometry width="50" height="50" relative="1" as="geometry">
            <mxPoint x="310" y="280" as="sourcePoint" />
            <mxPoint x="360" y="230" as="targetPoint" />
          </mxGeometry>
        </mxCell>
        <mxCell id="pc5rxJWwcsagWdeoUbo9-25" value="" style="edgeStyle=orthogonalEdgeStyle;rounded=0;orthogonalLoop=1;jettySize=auto;html=1;exitX=0.442;exitY=1.105;exitDx=0;exitDy=0;exitPerimeter=0;entryX=0.511;entryY=0.158;entryDx=0;entryDy=0;entryPerimeter=0;" parent="1" target="pc5rxJWwcsagWdeoUbo9-27" edge="1">
          <mxGeometry relative="1" as="geometry">
            <mxPoint x="196.37" y="480" as="sourcePoint" />
            <mxPoint x="196.37" y="516" as="targetPoint" />
          </mxGeometry>
        </mxCell>
        <mxCell id="pc5rxJWwcsagWdeoUbo9-26" style="edgeStyle=orthogonalEdgeStyle;rounded=0;orthogonalLoop=1;jettySize=auto;html=1;" parent="1" source="pc5rxJWwcsagWdeoUbo9-27" edge="1">
          <mxGeometry relative="1" as="geometry">
            <mxPoint x="251.66" y="520" as="targetPoint" />
          </mxGeometry>
        </mxCell>
        <mxCell id="pc5rxJWwcsagWdeoUbo9-27" value="" style="html=1;whiteSpace=wrap;aspect=fixed;shape=isoRectangle;" parent="1" vertex="1">
          <mxGeometry x="179.99999999999997" y="510" width="33.33" height="20" as="geometry" />
        </mxCell>
        <mxCell id="pc5rxJWwcsagWdeoUbo9-28" style="edgeStyle=orthogonalEdgeStyle;rounded=0;orthogonalLoop=1;jettySize=auto;html=1;" parent="1" edge="1">
          <mxGeometry relative="1" as="geometry">
            <mxPoint x="196.34499999999989" y="560" as="targetPoint" />
            <mxPoint x="196.34" y="530" as="sourcePoint" />
          </mxGeometry>
        </mxCell>
        <mxCell id="pc5rxJWwcsagWdeoUbo9-29" value="&lt;font style=&quot;font-size: 9px;&quot;&gt;Bombe?&lt;/font&gt;" style="text;html=1;align=center;verticalAlign=middle;resizable=0;points=[];autosize=1;strokeColor=none;fillColor=none;" parent="1" vertex="1">
          <mxGeometry x="125" y="505" width="60" height="30" as="geometry" />
        </mxCell>
        <mxCell id="pc5rxJWwcsagWdeoUbo9-30" value="&lt;font style=&quot;font-size: 9px;&quot;&gt;oui&lt;/font&gt;" style="text;html=1;align=center;verticalAlign=middle;resizable=0;points=[];autosize=1;strokeColor=none;fillColor=none;" parent="1" vertex="1">
          <mxGeometry x="203.33" y="500" width="40" height="30" as="geometry" />
        </mxCell>
        <mxCell id="pc5rxJWwcsagWdeoUbo9-31" value="&lt;font style=&quot;font-size: 9px;&quot;&gt;non&lt;/font&gt;" style="text;html=1;align=center;verticalAlign=middle;resizable=0;points=[];autosize=1;strokeColor=none;fillColor=none;" parent="1" vertex="1">
          <mxGeometry x="155" y="530" width="40" height="30" as="geometry" />
        </mxCell>
        <mxCell id="pc5rxJWwcsagWdeoUbo9-34" value="révéler la case" style="rounded=1;whiteSpace=wrap;html=1;" parent="1" vertex="1">
          <mxGeometry x="127.5" y="440" width="135" height="40" as="geometry" />
        </mxCell>
        <mxCell id="pc5rxJWwcsagWdeoUbo9-35" value="gagné" style="rounded=1;whiteSpace=wrap;html=1;" parent="1" vertex="1">
          <mxGeometry x="255" y="620" width="95" height="40" as="geometry" />
        </mxCell>
        <mxCell id="pc5rxJWwcsagWdeoUbo9-36" value="" style="html=1;whiteSpace=wrap;aspect=fixed;shape=isoRectangle;" parent="1" vertex="1">
          <mxGeometry x="179.99999999999997" y="630" width="33.33" height="20" as="geometry" />
        </mxCell>
        <mxCell id="pc5rxJWwcsagWdeoUbo9-37" value="" style="edgeStyle=orthogonalEdgeStyle;rounded=0;orthogonalLoop=1;jettySize=auto;html=1;exitX=0.442;exitY=1.105;exitDx=0;exitDy=0;exitPerimeter=0;entryX=0.511;entryY=0.158;entryDx=0;entryDy=0;entryPerimeter=0;" parent="1" edge="1">
          <mxGeometry relative="1" as="geometry">
            <mxPoint x="195" y="600" as="sourcePoint" />
            <mxPoint x="195.63" y="633" as="targetPoint" />
          </mxGeometry>
        </mxCell>
        <mxCell id="pc5rxJWwcsagWdeoUbo9-38" style="edgeStyle=orthogonalEdgeStyle;rounded=0;orthogonalLoop=1;jettySize=auto;html=1;" parent="1" edge="1">
          <mxGeometry relative="1" as="geometry">
            <mxPoint x="254.99999999999997" y="640" as="targetPoint" />
            <mxPoint x="216.34" y="640" as="sourcePoint" />
          </mxGeometry>
        </mxCell>
        <mxCell id="pc5rxJWwcsagWdeoUbo9-40" value="Afficher numéro" style="rounded=1;whiteSpace=wrap;html=1;" parent="1" vertex="1">
          <mxGeometry x="142.5" y="560" width="97.5" height="40" as="geometry" />
        </mxCell>
        <mxCell id="pc5rxJWwcsagWdeoUbo9-41" value="&lt;font style=&quot;font-size: 9px;&quot;&gt;dernière case ?&lt;/font&gt;" style="text;html=1;align=center;verticalAlign=middle;resizable=0;points=[];autosize=1;strokeColor=none;fillColor=none;" parent="1" vertex="1">
          <mxGeometry x="113.33" y="600" width="90" height="30" as="geometry" />
        </mxCell>
        <mxCell id="pc5rxJWwcsagWdeoUbo9-42" value="&lt;font style=&quot;font-size: 9px;&quot;&gt;non&lt;/font&gt;" style="text;html=1;align=center;verticalAlign=middle;resizable=0;points=[];autosize=1;strokeColor=none;fillColor=none;" parent="1" vertex="1">
          <mxGeometry x="102.50000000000001" y="630" width="40" height="30" as="geometry" />
        </mxCell>
        <mxCell id="pc5rxJWwcsagWdeoUbo9-43" value="&lt;font style=&quot;font-size: 9px;&quot;&gt;oui&lt;/font&gt;" style="text;html=1;align=center;verticalAlign=middle;resizable=0;points=[];autosize=1;strokeColor=none;fillColor=none;" parent="1" vertex="1">
          <mxGeometry x="210" y="630" width="40" height="30" as="geometry" />
        </mxCell>
        <mxCell id="pc5rxJWwcsagWdeoUbo9-48" value="" style="shape=partialRectangle;whiteSpace=wrap;html=1;bottom=0;right=0;fillColor=none;rotation=-90;" parent="1" vertex="1">
          <mxGeometry x="-50" y="410" width="360" height="100" as="geometry" />
        </mxCell>
        <mxCell id="pc5rxJWwcsagWdeoUbo9-49" style="edgeStyle=orthogonalEdgeStyle;rounded=0;orthogonalLoop=1;jettySize=auto;html=1;entryX=0.001;entryY=0.481;entryDx=0;entryDy=0;entryPerimeter=0;" parent="1" target="pc5rxJWwcsagWdeoUbo9-7" edge="1">
          <mxGeometry relative="1" as="geometry">
            <mxPoint x="120" y="280" as="targetPoint" />
            <mxPoint x="80" y="280" as="sourcePoint" />
            <Array as="points">
              <mxPoint x="94" y="280" />
            </Array>
          </mxGeometry>
        </mxCell>
        <mxCell id="pc5rxJWwcsagWdeoUbo9-50" value="" style="edgeStyle=segmentEdgeStyle;endArrow=classic;html=1;curved=0;rounded=0;endSize=8;startSize=8;" parent="1" edge="1">
          <mxGeometry width="50" height="50" relative="1" as="geometry">
            <mxPoint x="337.5" y="515" as="sourcePoint" />
            <mxPoint x="440" y="610" as="targetPoint" />
          </mxGeometry>
        </mxCell>
        <mxCell id="pc5rxJWwcsagWdeoUbo9-51" value="" style="endArrow=classic;html=1;rounded=0;" parent="1" edge="1">
          <mxGeometry width="50" height="50" relative="1" as="geometry">
            <mxPoint x="350" y="640" as="sourcePoint" />
            <mxPoint x="410" y="640" as="targetPoint" />
          </mxGeometry>
        </mxCell>
        <mxCell id="pc5rxJWwcsagWdeoUbo9-53" value="" style="ellipse;whiteSpace=wrap;html=1;aspect=fixed;fillColor=#060606;" parent="1" vertex="1">
          <mxGeometry x="420" y="625" width="30" height="30" as="geometry" />
        </mxCell>
        <mxCell id="pc5rxJWwcsagWdeoUbo9-54" value="" style="ellipse;shape=doubleEllipse;whiteSpace=wrap;html=1;aspect=fixed;fillColor=none;" parent="1" vertex="1">
          <mxGeometry x="415" y="620" width="40" height="40" as="geometry" />
        </mxCell>
      </root>
    </mxGraphModel>
  </diagram>
</mxfile>
